# Blender v2.82 (sub 7) OBJ File: ''
# www.blender.org
mtllib HealthUp.mtl
o SM_Item_Potion_01_Mesh
v 0.000000 0.216532 0.376600
v 0.130610 0.088867 0.131058
v 0.266962 0.216532 0.266913
v 0.130610 0.088867 -0.130162
v 0.000000 0.216533 -0.376698
v 0.266962 0.216533 -0.267010
v 0.000000 0.000000 0.000000
v 0.121202 0.000000 -0.120986
v 0.171003 -0.000000 0.000217
v 0.376649 0.216532 -0.000050
v -0.130610 0.088867 -0.130162
v -0.376649 0.216532 -0.000050
v -0.266960 0.216533 -0.267010
v -0.130610 0.088867 0.131058
v -0.266960 0.216532 0.266913
v -0.121202 0.000000 -0.120986
v -0.171003 -0.000000 0.000217
v 0.121202 -0.000000 0.121421
v 0.000000 -0.000000 0.171220
v -0.121202 -0.000000 0.121421
v 0.000000 0.088867 -0.183826
v -0.184274 0.088867 0.000448
v 0.184274 0.088867 0.000448
v 0.000000 0.000000 -0.170785
v 0.379892 0.478116 -0.000024
v 0.163299 0.629986 -0.163299
v 0.230395 0.629986 0.000000
v 0.000000 0.478116 -0.379915
v 0.269259 0.478116 -0.269282
v -0.163299 0.629986 -0.163299
v 0.000000 0.629986 -0.230395
v -0.379892 0.478116 -0.000024
v -0.269259 0.478116 -0.269282
v 0.000000 0.478116 0.379867
v -0.163299 0.629986 0.163299
v -0.269259 0.478116 0.269234
v -0.230395 0.629986 0.000000
v 0.163299 0.629986 0.163299
v 0.000000 0.629986 0.230396
v 0.269259 0.478116 0.269234
v 0.080560 0.807803 -0.080560
v 0.113661 0.807803 0.000000
v -0.080560 0.807803 -0.080560
v 0.000000 0.807803 -0.113661
v -0.080560 0.807803 0.080560
v -0.113660 0.807803 0.000000
v 0.080560 0.807803 0.080560
v 0.000000 0.807803 0.113661
v 0.122957 0.921432 0.000000
v 0.000000 0.921432 -0.122957
v 0.087150 0.921432 -0.087150
v -0.122957 0.921432 0.000000
v -0.087150 0.921432 -0.087150
v 0.000000 0.921432 0.122957
v -0.087150 0.921432 0.087150
v 0.087150 0.921432 0.087150
v 0.177380 0.946495 0.000000
v 0.000000 0.946495 -0.177380
v 0.125723 0.946495 -0.125723
v -0.125723 0.946495 -0.125723
v 0.000000 0.946495 0.177380
v -0.125723 0.946495 0.125723
v -0.177380 0.954524 0.000000
v 0.125723 0.952920 0.125723
v 0.125723 1.055394 -0.125723
v 0.177380 1.064813 0.000000
v 0.000000 1.064813 -0.177380
v -0.125723 1.064813 -0.125723
v 0.000000 1.058600 0.177380
v -0.125723 1.064813 0.125723
v -0.177380 1.056793 0.000000
v 0.125723 1.049125 0.125723
v 0.000000 1.064813 0.000000
v -0.407056 0.384769 -0.000035
v -0.288845 0.413117 -0.288661
v -0.288414 0.382642 -0.288623
v -0.288844 0.413112 0.288596
v -0.407658 0.415258 -0.000032
v -0.288414 0.382635 0.288553
v 0.000000 0.413479 0.407509
v 0.288414 0.401231 0.288553
v 0.000000 0.383009 0.407128
v 0.407056 0.403363 -0.000035
v 0.288844 0.431711 0.288596
v 0.288845 0.413117 -0.288661
v 0.407658 0.433852 -0.000032
v 0.288414 0.382642 -0.288623
v 0.000000 0.413489 -0.407571
v 0.000000 0.383021 -0.407201
v -0.378407 0.374541 -0.000036
v -0.267702 0.344699 0.267659
v -0.268208 0.374541 0.268173
v 0.000000 0.374541 0.378373
v 0.267702 0.294574 0.267659
v 0.000000 0.310290 0.377654
v 0.378407 0.393135 -0.000036
v 0.268208 0.393135 0.268173
v 0.377692 0.294574 -0.000041
v 0.268208 0.374541 -0.268245
v 0.000000 0.351958 -0.377735
v 0.267702 0.310290 -0.267741
v -0.268208 0.374541 -0.268245
v 0.000000 0.374541 -0.378444
v 0.379011 0.441761 -0.000031
v 0.268636 0.441761 0.268604
v 0.000000 0.423162 0.378980
v -0.268636 0.423162 0.268604
v -0.379011 0.423162 -0.000031
v -0.268636 0.423162 -0.268667
v 0.000000 0.423162 -0.379043
v 0.268636 0.423162 -0.268667
v -0.284595 0.326198 -0.284784
v 0.000000 0.343380 -0.402196
v 0.000000 0.305982 -0.401780
v -0.401645 0.327746 -0.000045
v -0.285019 0.363597 -0.284893
v -0.285020 0.335847 0.284807
v -0.402244 0.365152 -0.000042
v -0.284595 0.298446 0.284693
v 0.000000 0.301704 0.402110
v 0.000000 0.264309 0.401691
v 0.285020 0.285722 0.284807
v 0.401649 0.249872 -0.000045
v 0.284595 0.248318 0.284693
v 0.284595 0.264041 -0.284784
v 0.402244 0.287280 -0.000042
v 0.285019 0.301442 -0.284893
v 0.000000 0.298302 -0.377142
v -0.267277 0.318791 -0.267326
v -0.267277 0.291045 0.267231
v -0.377098 0.318791 -0.000046
v 0.000000 0.256636 0.377050
v 0.267277 0.240920 0.267231
v 0.377098 0.240920 -0.000046
v 0.267277 0.256636 -0.267326
v 0.000000 0.088867 0.184722
vt 0.308879 0.306938
vt 0.308879 0.306938
vt 0.308879 0.306938
vt 0.308879 0.306938
vt 0.308879 0.306938
vt 0.308879 0.306938
vt 0.309856 0.278617
vt 0.309856 0.278617
vt 0.309856 0.278617
vt 0.308879 0.306938
vt 0.308879 0.306938
vt 0.308879 0.306938
vt 0.308879 0.306938
vt 0.308879 0.306938
vt 0.308879 0.306938
vt 0.309856 0.278617
vt 0.309856 0.278617
vt 0.309856 0.278617
vt 0.309856 0.278617
vt 0.309856 0.278617
vt 0.312786 0.357719
vt 0.312786 0.357719
vt 0.312786 0.357719
vt 0.312786 0.357719
vt 0.312786 0.357719
vt 0.312786 0.357719
vt 0.312786 0.357719
vt 0.312786 0.357719
vt 0.312786 0.357719
vt 0.312786 0.357719
vt 0.312786 0.357719
vt 0.312786 0.357719
vt 0.312786 0.357719
vt 0.312786 0.357719
vt 0.312786 0.357719
vt 0.312786 0.357719
vt 0.312786 0.357719
vt 0.312786 0.357719
vt 0.312786 0.357719
vt 0.312786 0.357719
vt 0.312786 0.357719
vt 0.312786 0.357719
vt 0.312786 0.357719
vt 0.312786 0.357719
vt 0.312786 0.357719
vt 0.312786 0.357719
vt 0.312786 0.357719
vt 0.312786 0.357719
vt 0.312786 0.357719
vt 0.312786 0.357719
vt 0.312786 0.357719
vt 0.310833 0.331352
vt 0.310833 0.331352
vt 0.310833 0.331352
vt 0.310833 0.331352
vt 0.310833 0.331352
vt 0.310833 0.331352
vt 0.310833 0.331352
vt 0.310833 0.331352
vt 0.310833 0.331352
vt 0.310833 0.331352
vt 0.310833 0.331352
vt 0.310833 0.331352
vt 0.310833 0.331352
vt 0.310833 0.331352
vt 0.310833 0.331352
vt 0.310833 0.331352
vt 0.313762 0.304008
vt 0.313762 0.304008
vt 0.313762 0.304008
vt 0.313762 0.304008
vt 0.313762 0.304008
vt 0.313762 0.304008
vt 0.313762 0.304008
vt 0.313762 0.304008
vt 0.313762 0.304008
vt 0.313762 0.304008
vt 0.313762 0.304008
vt 0.313762 0.304008
vt 0.313762 0.304008
vt 0.313762 0.304008
vt 0.313762 0.304008
vt 0.313762 0.304008
vt 0.298631 0.212390
vt 0.298631 0.212390
vt 0.298631 0.212390
vt 0.298631 0.212390
vt 0.298631 0.212390
vt 0.298631 0.212390
vt 0.298631 0.212390
vt 0.298631 0.212390
vt 0.298631 0.212390
vt 0.298631 0.212390
vt 0.298631 0.212390
vt 0.298631 0.212390
vt 0.298631 0.212390
vt 0.298631 0.212390
vt 0.298631 0.212390
vt 0.298631 0.212390
vt 0.298631 0.212390
vt 0.298631 0.212390
vt 0.298631 0.212390
vt 0.298631 0.212390
vt 0.298631 0.212390
vt 0.298631 0.212390
vt 0.298631 0.212390
vt 0.298631 0.212390
vt 0.298631 0.212390
vt 0.363082 0.213519
vt 0.363082 0.213519
vt 0.363082 0.213519
vt 0.363082 0.213519
vt 0.363082 0.213519
vt 0.363082 0.213519
vt 0.363082 0.213519
vt 0.363082 0.213519
vt 0.363082 0.213519
vt 0.363082 0.213519
vt 0.363082 0.213519
vt 0.363082 0.213519
vt 0.363082 0.213519
vt 0.363082 0.213519
vt 0.363082 0.213519
vt 0.363082 0.213519
vt 0.316692 0.304008
vt 0.316692 0.304008
vt 0.316692 0.304008
vt 0.316692 0.304008
vt 0.316692 0.304008
vt 0.316692 0.304008
vt 0.316692 0.304008
vt 0.316692 0.304008
vt 0.316692 0.304008
vt 0.316692 0.304008
vt 0.316692 0.304008
vt 0.316692 0.304008
vt 0.316692 0.304008
vt 0.316692 0.304008
vt 0.312786 0.357719
vt 0.312786 0.357719
vt 0.312786 0.357719
vt 0.312786 0.357719
vt 0.312786 0.357719
vt 0.312786 0.357719
vt 0.312786 0.357719
vt 0.312786 0.357719
vt 0.363082 0.213519
vt 0.363082 0.213519
vt 0.363082 0.213519
vt 0.363082 0.213519
vt 0.363082 0.213519
vt 0.363082 0.213519
vt 0.363082 0.213519
vt 0.363082 0.213519
vt 0.363082 0.213519
vt 0.363082 0.213519
vt 0.363082 0.213519
vt 0.363082 0.213519
vt 0.363082 0.213519
vt 0.363082 0.213519
vt 0.363082 0.213519
vt 0.363082 0.213519
vt 0.361897 0.211145
vt 0.361897 0.211145
vt 0.361897 0.211145
vt 0.361897 0.211145
vt 0.361897 0.211145
vt 0.361897 0.211145
vt 0.361897 0.211145
vt 0.361897 0.211145
vt 0.361897 0.211145
vt 0.361897 0.211145
vt 0.361897 0.211145
vt 0.361897 0.211145
vt 0.361897 0.211145
vt 0.361897 0.211145
vt 0.361897 0.211145
vt 0.361897 0.211145
vt 0.312786 0.357719
vt 0.312786 0.357719
vt 0.312786 0.357719
vt 0.312786 0.357719
vt 0.312786 0.357719
vt 0.312786 0.357719
vt 0.312786 0.357719
vt 0.312786 0.357719
vt 0.312786 0.357719
vt 0.312786 0.357719
vt 0.312786 0.357719
vt 0.312786 0.357719
vt 0.312786 0.357719
vt 0.312786 0.357719
vt 0.312786 0.357719
vt 0.312786 0.357719
vt 0.361897 0.211145
vt 0.361897 0.211145
vt 0.361897 0.211145
vt 0.361897 0.211145
vt 0.361897 0.211145
vt 0.361897 0.211145
vt 0.361897 0.211145
vt 0.361897 0.211145
vt 0.361897 0.211145
vt 0.361897 0.211145
vt 0.361897 0.211145
vt 0.361897 0.211145
vt 0.361897 0.211145
vt 0.361897 0.211145
vt 0.361897 0.211145
vt 0.361897 0.211145
vt 0.308879 0.306938
vt 0.308879 0.306938
vt 0.309856 0.278617
vt 0.308879 0.306938
vt 0.308879 0.306938
vt 0.312786 0.357719
vn 0.2219 -0.8118 0.5401
vn 0.2212 -0.8132 -0.5383
vn 0.0000 -1.0000 -0.0000
vn 0.5388 -0.8128 -0.2214
vn -0.5388 -0.8128 -0.2214
vn -0.2219 -0.8118 0.5401
vn -0.2212 -0.8132 -0.5383
vn -0.5396 -0.8122 0.2217
vn 0.5396 -0.8122 0.2217
vn -0.3766 -0.1345 -0.9166
vn -0.9164 -0.1359 -0.3765
vn -0.9161 -0.1378 0.3764
vn -0.3763 -0.1392 0.9160
vn 0.3763 -0.1392 0.9160
vn 0.9161 -0.1378 0.3764
vn 0.9164 -0.1359 -0.3765
vn 0.3766 -0.1345 -0.9166
vn 0.6839 0.6733 -0.2810
vn 0.2810 0.6733 -0.6839
vn -0.2810 0.6733 -0.6839
vn -0.6839 0.6733 -0.2810
vn -0.2810 0.6732 0.6840
vn -0.6840 0.6732 0.2810
vn 0.2810 0.6732 0.6840
vn 0.6840 0.6732 0.2810
vn 0.7906 0.5190 -0.3249
vn 0.3249 0.5190 -0.7906
vn 0.3248 0.5190 -0.7906
vn -0.3249 0.5190 -0.7906
vn -0.7906 0.5190 -0.3248
vn -0.3249 0.5190 0.7906
vn -0.7906 0.5190 0.3248
vn 0.3249 0.5190 0.7906
vn 0.7906 0.5190 0.3249
vn 0.7906 0.5190 0.3248
vn 0.9223 -0.0755 -0.3790
vn 0.3790 -0.0755 -0.9223
vn -0.3790 -0.0755 -0.9223
vn -0.9223 -0.0755 -0.3790
vn -0.3790 -0.0755 0.9223
vn -0.9223 -0.0755 0.3790
vn 0.3790 -0.0755 0.9223
vn 0.9223 -0.0755 0.3790
vn 0.4123 -0.8952 -0.1694
vn 0.1694 -0.8952 -0.4123
vn -0.1694 -0.8952 -0.4123
vn -0.4896 -0.8571 -0.1601
vn -0.4522 -0.8766 -0.1648
vn -0.4123 -0.8952 -0.1694
vn -0.1694 -0.8952 0.4123
vn -0.4896 -0.8571 0.1601
vn -0.4522 -0.8766 0.1648
vn -0.5131 -0.8439 0.1569
vn 0.2189 -0.8649 0.4517
vn 0.1945 -0.8804 0.4324
vn 0.1694 -0.8952 0.4123
vn 0.4517 -0.8649 0.2189
vn 0.4324 -0.8804 0.1945
vn 0.4635 -0.8546 0.2341
vn 0.9250 0.0000 -0.3800
vn 0.3800 0.0000 -0.9250
vn -0.3800 0.0000 -0.9250
vn -0.3801 0.0000 -0.9250
vn -0.9250 0.0000 -0.3800
vn -0.3800 0.0000 0.9250
vn -0.9250 0.0000 0.3800
vn 0.3800 0.0000 0.9250
vn 0.9250 0.0000 0.3800
vn 0.0000 0.9972 -0.0747
vn 0.0747 0.9972 0.0000
vn 0.0000 1.0000 0.0000
vn -0.0451 0.9980 0.0451
vn 0.0350 0.9988 0.0350
vn -0.0451 0.9980 -0.0451
vn 0.0893 0.9954 0.0349
vn 0.0000 0.9923 0.1238
vn -0.9246 -0.0179 -0.3805
vn -0.9248 -0.0138 -0.3801
vn -0.9248 -0.0136 -0.3801
vn -0.9246 -0.0180 0.3805
vn -0.9248 -0.0139 0.3801
vn -0.9246 -0.0183 0.3805
vn -0.3806 -0.0070 0.9247
vn -0.3802 -0.0113 0.9248
vn -0.3807 -0.0067 0.9247
vn 0.3810 -0.0070 0.9245
vn 0.3809 -0.0113 0.9246
vn 0.3808 -0.0116 0.9246
vn 0.9246 -0.0180 0.3805
vn 0.9248 -0.0139 0.3801
vn 0.9248 -0.0136 0.3801
vn 0.9250 -0.0180 -0.3795
vn 0.9251 -0.0138 -0.3794
vn 0.9250 -0.0182 -0.3795
vn 0.3806 -0.0068 -0.9247
vn 0.3802 -0.0109 -0.9248
vn 0.3807 -0.0065 -0.9247
vn -0.3806 -0.0068 -0.9247
vn -0.3802 -0.0109 -0.9248
vn -0.3802 -0.0112 -0.9248
vn -0.9247 -0.0222 0.3799
vn -0.3801 -0.0208 0.9247
vn -0.3811 -0.0111 0.9245
vn -0.3800 -0.0224 0.9247
vn 0.3803 -0.0073 0.9248
vn 0.3797 -0.0096 0.9251
vn 0.3795 -0.0104 0.9251
vn 0.9249 -0.0067 0.3800
vn 0.9251 -0.0072 -0.3798
vn 0.9248 -0.0095 -0.3804
vn 0.9251 -0.0067 -0.3796
vn 0.3797 -0.0266 -0.9247
vn 0.3787 -0.0112 -0.9254
vn 0.3787 -0.0102 -0.9255
vn -0.3799 -0.0290 -0.9246
vn 0.9248 -0.0215 -0.3799
vn 0.9252 -0.0153 -0.3792
vn 0.9247 -0.0223 -0.3800
vn 0.9247 -0.0224 0.3800
vn 0.9247 -0.0225 0.3799
vn 0.3801 -0.0217 0.9247
vn 0.3808 -0.0155 0.9245
vn 0.3809 -0.0149 0.9245
vn -0.3800 -0.0149 0.9249
vn -0.9249 -0.0148 0.3800
vn -0.9249 -0.0149 0.3800
vn -0.9249 -0.0148 -0.3800
vn -0.9249 -0.0147 -0.3800
vn -0.3800 -0.0147 -0.9249
vn 0.3800 -0.0147 -0.9249
vn -0.1964 -0.9619 -0.1904
vn -0.3318 -0.9434 -0.0000
vn -0.1941 -0.9624 -0.1902
vn -0.2692 0.9631 0.0000
vn -0.2337 0.9437 -0.2341
vn -0.2660 0.9640 0.0000
vn -0.1962 -0.9619 0.1904
vn -0.3362 -0.9418 -0.0000
vn -0.2338 0.9436 0.2343
vn -0.2356 0.9429 0.2353
vn 0.0333 -0.9594 0.2800
vn -0.1939 -0.9624 0.1900
vn -0.0305 0.9463 0.3217
vn -0.0285 0.9461 0.3226
vn 0.2178 -0.9611 0.1701
vn 0.0317 -0.9588 0.2824
vn 0.2086 0.9437 0.2567
vn 0.2129 0.9423 0.2585
vn 0.3338 -0.9421 0.0331
vn 0.2166 -0.9618 0.1674
vn 0.2677 0.9631 -0.0278
vn 0.2669 0.9632 -0.0306
vn 0.3356 -0.9414 0.0329
vn 0.2163 -0.9616 -0.1690
vn 0.2117 0.9426 -0.2582
vn 0.2117 0.9423 -0.2594
vn 0.2148 -0.9618 -0.1698
vn 0.0000 -0.9594 -0.2821
vn -0.0000 0.9467 -0.3221
vn 0.0000 0.9470 -0.3211
vn 0.0000 -0.9592 -0.2828
vn -0.2352 0.9430 -0.2356
vn -0.3810 -0.0073 -0.9245
vn -0.3808 -0.0100 -0.9246
vn -0.3808 -0.0103 -0.9246
vn -0.9247 -0.0145 -0.3804
vn -0.9248 -0.0118 -0.3802
vn -0.9249 -0.0116 -0.3801
vn -0.9252 -0.0146 0.3792
vn -0.9253 -0.0119 0.3792
vn -0.9252 -0.0148 0.3792
vn -0.3813 -0.0074 0.9244
vn -0.3813 -0.0101 0.9244
vn -0.3813 -0.0072 0.9244
vn 0.3801 -0.0101 0.9249
vn 0.3799 -0.0074 0.9250
vn 0.3801 -0.0104 0.9249
vn 0.9247 -0.0145 0.3804
vn 0.9248 -0.0119 0.3802
vn 0.9249 -0.0117 0.3801
vn 0.9245 -0.0118 -0.3810
vn 0.9245 -0.0144 -0.3808
vn 0.9245 -0.0147 -0.3808
vn 0.3793 -0.0101 -0.9252
vn 0.3793 -0.0072 -0.9252
vn 0.3793 -0.0070 -0.9252
vn -0.3803 -0.0042 -0.9249
vn -0.3801 -0.0048 -0.9249
vn -0.3800 -0.0050 -0.9250
vn -0.9250 -0.0040 -0.3800
vn -0.9251 -0.0043 0.3797
vn -0.9250 -0.0052 0.3800
vn -0.9251 -0.0041 0.3797
vn -0.3806 -0.0060 0.9247
vn -0.3801 -0.0096 0.9249
vn -0.3807 -0.0056 0.9247
vn 0.3795 -0.0107 0.9251
vn 0.3799 -0.0164 0.9249
vn 0.9248 -0.0169 0.3800
vn 0.9248 -0.0171 0.3800
vn 0.9247 -0.0106 -0.3805
vn 0.9248 -0.0164 -0.3800
vn 0.9248 -0.0170 -0.3800
vn 0.3794 -0.0055 -0.9252
vn 0.3799 -0.0094 -0.9250
vn 0.3800 -0.0103 -0.9249
vn -0.2311 -0.9562 -0.1799
vn -0.1069 -0.9498 -0.2941
vn -0.1034 -0.9490 -0.2977
vn 0.0985 0.9380 -0.3323
vn -0.2654 0.9096 -0.3198
vn -0.2709 0.9069 -0.3226
vn -0.3407 -0.9389 -0.0482
vn -0.2303 -0.9568 -0.1775
vn -0.3673 0.9290 0.0452
vn -0.3633 0.9304 0.0494
vn -0.3425 -0.9383 -0.0470
vn -0.2792 -0.9519 0.1259
vn -0.1690 0.9341 0.3145
vn -0.1612 0.9351 0.3156
vn -0.2776 -0.9518 0.1307
vn -0.0880 -0.9519 0.2934
vn 0.0806 0.9398 0.3320
vn 0.0850 0.9404 0.3293
vn -0.0839 -0.9513 0.2967
vn 0.1851 -0.9576 0.2209
vn 0.2588 0.9395 0.2244
vn 0.2583 0.9403 0.2218
vn 0.1878 -0.9570 0.2210
vn 0.3381 -0.9407 -0.0277
vn 0.2878 0.9574 0.0255
vn 0.2847 0.9582 0.0268
vn 0.1394 -0.9530 -0.2688
vn 0.3425 -0.9392 -0.0260
vn 0.3065 0.9367 -0.1692
vn 0.3068 0.9355 -0.1754
vn 0.1309 -0.9538 -0.2705
vn 0.1072 0.9391 -0.3265
vn 0.7906 0.5190 -0.3248
vn -0.3248 0.5190 -0.7906
vn -0.5131 -0.8439 -0.1569
vn -0.4123 -0.8952 0.1694
vn 0.2341 -0.8546 0.4635
vn 0.4123 -0.8952 0.1694
vn -0.9246 -0.0182 -0.3805
vn -0.9248 -0.0136 0.3801
vn -0.3802 -0.0116 0.9248
vn 0.3810 -0.0067 0.9245
vn 0.9246 -0.0183 0.3805
vn 0.9251 -0.0136 -0.3794
vn 0.3802 -0.0112 -0.9248
vn -0.3807 -0.0065 -0.9247
vn -0.3812 -0.0103 0.9244
vn 0.3804 -0.0068 0.9248
vn 0.9247 -0.0103 -0.3805
vn 0.3799 -0.0290 -0.9246
vn 0.9252 -0.0147 -0.3791
vn 0.3800 -0.0225 0.9247
vn -0.3810 -0.0070 -0.9245
vn -0.9247 -0.0148 -0.3805
vn -0.9253 -0.0117 0.3792
vn -0.3813 -0.0104 0.9244
vn 0.3799 -0.0071 0.9250
vn 0.9247 -0.0147 0.3805
vn 0.9245 -0.0116 -0.3810
vn 0.3793 -0.0103 -0.9252
vn -0.3803 -0.0040 -0.9249
vn -0.9250 -0.0056 0.3800
vn -0.3800 -0.0104 0.9249
vn 0.3800 -0.0170 0.9248
vn 0.3794 -0.0050 -0.9252
usemtl lambert1
s 1
f 1/1/1 2/2/1 3/3/1
f 4/4/2 5/5/2 6/6/2
f 7/7/3 8/8/3 9/9/3
f 10/10/4 4/4/4 6/6/4
f 11/11/5 12/12/5 13/13/5
f 14/14/6 1/1/6 15/15/6
f 16/16/3 7/7/3 17/17/3
f 5/5/7 11/11/7 13/13/7
f 7/7/3 18/18/3 19/19/3
f 7/7/3 20/20/3 17/17/3
f 12/12/8 14/14/8 15/15/8
f 2/2/9 10/10/9 3/3/9
f 21/21/10 16/22/10 11/23/10
f 17/24/11 11/23/11 16/22/11
f 22/25/12 20/26/12 14/27/12
f 19/28/13 14/27/13 20/26/13
f 2/29/14 19/28/14 18/30/14
f 18/30/15 23/31/15 2/29/15
f 4/32/16 9/33/16 8/34/16
f 21/21/17 8/34/17 24/35/17
f 25/36/18 26/37/18 27/38/18
f 28/39/19 26/37/19 29/40/19
f 28/39/20 30/41/20 31/42/20
f 32/43/21 30/41/21 33/44/21
f 34/45/22 35/46/22 36/47/22
f 32/43/23 35/46/23 37/48/23
f 34/45/24 38/49/24 39/50/24
f 25/36/25 38/49/25 40/51/25
f 27/52/26 41/53/26 42/54/26
f 31/55/27 41/53/27 26/56/28
f 31/55/29 43/57/29 44/58/29
f 37/59/30 43/57/30 30/60/30
f 39/61/31 45/62/31 35/63/31
f 37/59/32 45/62/32 46/64/32
f 39/61/33 47/65/33 48/66/33
f 27/52/34 47/65/34 38/67/35
f 41/68/36 49/69/36 42/70/36
f 41/68/37 50/71/37 51/72/37
f 43/73/38 50/71/38 44/74/38
f 43/73/39 52/75/39 53/76/39
f 45/77/40 54/78/40 55/79/40
f 45/77/41 52/75/41 46/80/41
f 47/81/42 54/78/42 48/82/42
f 47/81/43 49/69/43 56/83/43
f 51/84/44 57/85/44 49/86/44
f 51/84/45 58/87/45 59/88/45
f 53/89/46 58/87/46 50/90/46
f 52/91/47 60/92/48 53/89/49
f 55/93/50 61/94/50 62/95/50
f 52/91/51 62/95/52 63/96/53
f 56/97/54 61/94/55 54/98/56
f 56/97/57 57/85/58 64/99/59
f 57/85/60 65/100/60 66/101/60
f 58/87/61 65/100/61 59/88/61
f 60/92/62 67/102/62 58/87/63
f 63/96/64 68/103/64 60/92/64
f 62/95/65 69/104/65 70/105/65
f 63/96/66 70/105/66 71/106/66
f 61/94/67 72/107/67 69/104/67
f 57/85/68 72/107/68 64/99/68
f 66/101/69 65/100/69 73/108/69
f 65/100/70 67/102/70 73/108/70
f 67/102/71 68/103/71 73/108/71
f 68/103/72 71/106/72 73/108/72
f 70/105/73 69/104/73 73/108/73
f 71/106/74 70/105/74 73/108/74
f 69/104/75 72/107/75 73/108/75
f 72/107/76 66/101/76 73/108/76
f 74/109/77 75/110/78 76/111/79
f 74/109/80 77/112/81 78/113/82
f 79/114/83 80/115/84 77/112/85
f 81/116/86 80/115/87 82/117/88
f 83/118/89 84/119/90 81/116/91
f 83/118/92 85/120/93 86/121/94
f 87/122/95 88/123/96 85/120/97
f 76/111/98 88/123/99 89/124/100
f 90/125/101 91/126/101 92/127/101
f 91/126/102 93/128/103 92/127/104
f 94/129/105 93/128/106 95/130/107
f 94/129/108 96/131/108 97/132/108
f 98/133/109 99/134/110 96/131/111
f 100/135/112 99/134/113 101/136/114
f 100/135/115 102/137/115 103/138/115
f 104/139/116 29/40/117 25/36/118
f 105/140/119 25/36/120 40/51/119
f 105/140/121 34/45/122 106/141/123
f 107/142/124 34/45/124 36/47/124
f 107/142/125 32/43/126 108/143/126
f 108/143/127 33/44/128 109/144/128
f 109/144/129 28/39/129 110/145/129
f 111/146/130 28/39/130 29/40/130
f 102/147/131 74/109/132 76/111/133
f 108/148/134 75/110/135 78/113/136
f 92/149/137 74/109/132 90/150/138
f 108/148/134 77/112/139 107/151/140
f 92/149/137 82/117/141 79/114/142
f 107/151/140 80/115/143 106/152/144
f 97/153/145 82/117/141 93/154/146
f 106/152/144 84/119/147 105/155/148
f 97/153/145 83/118/149 81/116/150
f 104/156/151 84/119/147 86/121/152
f 96/157/153 87/122/154 83/118/149
f 111/158/155 86/121/152 85/120/156
f 99/159/157 89/124/158 87/122/154
f 111/158/155 88/123/159 110/160/160
f 102/147/131 89/124/158 103/161/161
f 109/162/162 88/123/159 75/110/135
f 112/163/163 113/164/164 114/165/165
f 115/166/166 116/167/167 112/163/168
f 115/166/169 117/168/170 118/169/171
f 119/170/172 120/171/173 117/168/174
f 121/172/175 122/173/176 120/171/177
f 123/174/178 122/173/179 124/175/180
f 125/176/181 126/177/182 123/174/183
f 114/165/184 127/178/185 125/176/186
f 13/179/187 128/180/188 5/181/189
f 12/182/190 129/183/190 13/179/190
f 12/182/191 130/184/192 131/185/193
f 15/186/194 132/187/195 130/184/196
f 1/188/197 133/189/198 132/187/107
f 3/190/199 134/191/200 133/189/199
f 6/192/201 134/191/202 10/193/203
f 5/181/204 135/194/205 6/192/206
f 129/195/207 114/165/208 128/196/209
f 100/197/210 116/167/211 102/198/212
f 129/195/207 115/166/213 112/163/214
f 90/199/215 116/167/211 118/169/216
f 131/200/217 119/170/218 115/166/213
f 91/201/219 118/169/216 117/168/220
f 130/202/221 121/172/222 119/170/218
f 95/203/223 117/168/220 120/171/224
f 132/204/225 124/175/226 121/172/222
f 94/205/227 120/171/224 122/173/228
f 133/206/229 123/174/230 124/175/226
f 98/207/231 122/173/228 126/177/232
f 135/208/233 123/174/230 134/209/234
f 98/207/231 127/178/235 101/210/236
f 128/196/209 125/176/237 135/208/233
f 101/210/236 113/164/238 100/197/210
f 1/1/1 136/211/1 2/2/1
f 4/4/2 21/212/2 5/5/2
f 7/7/3 24/213/3 8/8/3
f 10/10/4 23/214/4 4/4/4
f 11/11/5 22/215/5 12/12/5
f 14/14/6 136/211/6 1/1/6
f 16/16/3 24/213/3 7/7/3
f 5/5/7 21/212/7 11/11/7
f 7/7/3 9/9/3 18/18/3
f 7/7/3 19/19/3 20/20/3
f 12/12/8 22/215/8 14/14/8
f 2/2/9 23/214/9 10/10/9
f 21/21/10 24/35/10 16/22/10
f 17/24/11 22/25/11 11/23/11
f 22/25/12 17/24/12 20/26/12
f 19/28/13 136/216/13 14/27/13
f 2/29/14 136/216/14 19/28/14
f 18/30/15 9/33/15 23/31/15
f 4/32/16 23/31/16 9/33/16
f 21/21/17 4/32/17 8/34/17
f 25/36/18 29/40/18 26/37/18
f 28/39/19 31/42/19 26/37/19
f 28/39/20 33/44/20 30/41/20
f 32/43/21 37/48/21 30/41/21
f 34/45/22 39/50/22 35/46/22
f 32/43/23 36/47/23 35/46/23
f 34/45/24 40/51/24 38/49/24
f 25/36/25 27/38/25 38/49/25
f 27/52/26 26/56/239 41/53/26
f 31/55/27 44/58/27 41/53/27
f 31/55/29 30/60/240 43/57/29
f 37/59/30 46/64/30 43/57/30
f 39/61/31 48/66/31 45/62/31
f 37/59/32 35/63/32 45/62/32
f 39/61/33 38/67/33 47/65/33
f 27/52/34 42/54/34 47/65/34
f 41/68/36 51/72/36 49/69/36
f 41/68/37 44/74/37 50/71/37
f 43/73/38 53/76/38 50/71/38
f 43/73/39 46/80/39 52/75/39
f 45/77/40 48/82/40 54/78/40
f 45/77/41 55/79/41 52/75/41
f 47/81/42 56/83/42 54/78/42
f 47/81/43 42/70/43 49/69/43
f 51/84/44 59/88/44 57/85/44
f 51/84/45 50/90/45 58/87/45
f 53/89/46 60/92/46 58/87/46
f 52/91/47 63/96/241 60/92/48
f 55/93/50 54/98/50 61/94/50
f 52/91/51 55/93/242 62/95/52
f 56/97/54 64/99/243 61/94/55
f 56/97/57 49/86/244 57/85/58
f 57/85/60 59/88/60 65/100/60
f 58/87/61 67/102/61 65/100/61
f 60/92/62 68/103/62 67/102/62
f 63/96/64 71/106/64 68/103/64
f 62/95/65 61/94/65 69/104/65
f 63/96/66 62/95/66 70/105/66
f 61/94/67 64/99/67 72/107/67
f 57/85/68 66/101/68 72/107/68
f 74/109/77 78/113/245 75/110/78
f 74/109/80 79/114/246 77/112/81
f 79/114/83 82/117/247 80/115/84
f 81/116/86 84/119/248 80/115/87
f 83/118/89 86/121/249 84/119/90
f 83/118/92 87/122/250 85/120/93
f 87/122/95 89/124/251 88/123/96
f 76/111/98 75/110/252 88/123/99
f 91/126/102 95/130/253 93/128/103
f 94/129/105 97/132/254 93/128/106
f 94/129/108 98/133/108 96/131/108
f 98/133/109 101/136/255 99/134/110
f 100/135/112 103/138/256 99/134/113
f 104/139/116 111/146/257 29/40/117
f 105/140/119 104/139/120 25/36/120
f 105/140/121 40/51/258 34/45/122
f 107/142/124 106/141/124 34/45/124
f 107/142/125 36/47/125 32/43/126
f 108/143/127 32/43/127 33/44/128
f 109/144/129 33/44/129 28/39/129
f 111/146/130 110/145/130 28/39/130
f 102/147/131 90/150/138 74/109/132
f 108/148/134 109/162/162 75/110/135
f 92/149/137 79/114/142 74/109/132
f 108/148/134 78/113/136 77/112/139
f 92/149/137 93/154/146 82/117/141
f 107/151/140 77/112/139 80/115/143
f 97/153/145 81/116/150 82/117/141
f 106/152/144 80/115/143 84/119/147
f 97/153/145 96/157/153 83/118/149
f 104/156/151 105/155/148 84/119/147
f 96/157/153 99/159/157 87/122/154
f 111/158/155 104/156/151 86/121/152
f 99/159/157 103/161/161 89/124/158
f 111/158/155 85/120/156 88/123/159
f 102/147/131 76/111/133 89/124/158
f 109/162/162 110/160/160 88/123/159
f 112/163/163 116/167/259 113/164/164
f 115/166/166 118/169/260 116/167/167
f 115/166/169 119/170/261 117/168/170
f 119/170/172 121/172/262 120/171/173
f 121/172/175 124/175/263 122/173/176
f 123/174/178 126/177/264 122/173/179
f 125/176/181 127/178/265 126/177/182
f 114/165/184 113/164/266 127/178/185
f 13/179/187 129/183/267 128/180/188
f 12/182/190 131/185/190 129/183/190
f 12/182/191 15/186/268 130/184/192
f 15/186/194 1/188/269 132/187/195
f 1/188/197 3/190/270 133/189/198
f 3/190/199 10/193/200 134/191/200
f 6/192/201 135/194/255 134/191/202
f 5/181/204 128/180/271 135/194/205
f 129/195/207 112/163/214 114/165/208
f 100/197/210 113/164/238 116/167/211
f 129/195/207 131/200/217 115/166/213
f 90/199/215 102/198/212 116/167/211
f 131/200/217 130/202/221 119/170/218
f 91/201/219 90/199/215 118/169/216
f 130/202/221 132/204/225 121/172/222
f 95/203/223 91/201/219 117/168/220
f 132/204/225 133/206/229 124/175/226
f 94/205/227 95/203/223 120/171/224
f 133/206/229 134/209/234 123/174/230
f 98/207/231 94/205/227 122/173/228
f 135/208/233 125/176/237 123/174/230
f 98/207/231 126/177/232 127/178/235
f 128/196/209 114/165/208 125/176/237
f 101/210/236 127/178/235 113/164/238
